<svg xmlns="http://www.w3.org/2000/svg" viewBox="180 20 1000 940">
<g fill="#d9ab53" fill-opacity=".07">
<path d="M1138,43.8c-51.1,42.1-103.8,101.9-155.2,179.7c-65.9,99.8-119.7,210-172.7,319.2  c-16,32.9-32.5,65.3-50.8,96.9c-16.8,29.1-34.4,57.6-50,87.6c-13.2,25.3-25.5,55.7-23,83.1c6.2,66.2,90.8,65.3,110.7-9.9  c4.2-15.8,5.2-31.8,6.5-47.6C814,631.6,854.3,515,903.3,400.5c14.4-33.7,29.9-66.6,46.2-98.1C1007.1,191.3,1074.8,98.8,1138,43.8z"/>
<path d="M224.5,367c0,0,0,0.6,0,1.8c0,0.6,0,1.3,0,2.2c0,0.9,0.1,1.9,0.2,3c0.4,4.5,1.3,11.3,4,19.5  c26.7,81.5,119.2,137.8,192.5,157.1c67.6,17.8,143.7,11.3,209.5-21.3c7.5-3.7,14.9-7.9,22.2-12c21.6-12.2,20-15.1,49.9-23  c25.7-6.7,60.6-0.9,68.3,30.2c5.4,21.7-5.8,45.8-16.3,64.5c-13.5,23.9-30.7,44.9-47.6,66c-28.2,35.2-59.1,72.2-67.5,119  c-8.1,45.2,8.6,93,41.5,118.8c32.9,25.8,80.5,28.3,118.1,6.2c17-10,32.2-25,41.1-43.7c15.3-32.2,10.3-69.7,8-104.9  c-2.9-44.6-0.7-90.6,12.6-134c9.8-32,28.9-65.2,58.6-74.1c23.4-7,47.7,3.1,66.2,18.5c42.3,35.3,55.7,81.5,84.7,127.2  c36.4,57.4,89.7,101.2,150.7,123.8c66.4,24.6,142.7,24.6,211.5-1.7c13.8-5.3,27.3-11.8,40.3-19.3c3.8-2.2,5.7-3.3,5.7-3.3  s-2,1-5.9,3c-1.9,1-4.3,2.3-7.2,3.7c-61.8,30.8-133.6,36.5-197.2,21.1c-61.2-14.8-117.6-49.1-159.4-98.9  c-9.2-10.9-17.6-22.6-25.2-35c-23.9-38.8-40.3-83.8-69.6-117.8c-29.2-34.1-77.8-55.1-117.6-32c-28.7,16.7-45,51.6-54.5,85.4  c-12.5,44.2-16.9,90.5-13.6,135.6c2.2,29,7.3,59.3-3.3,86.8c-15.8,41.1-63.8,60.4-101.9,49.7c-29.1-8.2-54.3-31.9-62.5-63.6  c-9.9-38.1,5.3-80.5,27.1-114.3c21.8-33.7,50.2-62.1,72.4-95.5c12.5-18.9,23.2-39.9,26.6-62.5c3.5-22.6-1.1-47-15.6-62.4  c-17.6-18.7-46.1-20.5-70.8-13.2c-24.7,7.3-47.2,22.3-70.6,34.3c-66.3,34-141.6,43.8-210.7,27.3c-71.1-17-160.4-69.6-189.4-146.3  c-3-8-4.2-14.6-4.8-19.1c-0.1-1.1-0.3-2.1-0.3-3c0-0.9-0.1-1.6-0.1-2.2C224.5,367.6,224.5,367,224.5,367z"/>
</g>
</svg>