<?xml version="1.0" standalone="no"?>
<!DOCTYPE svg PUBLIC "-//W3C//DTD SVG 1.1//EN" "http://www.w3.org/Graphics/SVG/1.1/DTD/svg11.dtd">
<svg xmlns="http://www.w3.org/2000/svg" xmlns:xlink="http://www.w3.org/1999/xlink" id="Layer_1" data-name="Layer 1" viewBox="0 0 1570.77 1570.77" width="1570.77001953125" height="1570.77001953125"><defs><style>.cls-1{fill:#2c0e0b;}.cls-2{fill:url(#linear-gradient);}.cls-3{fill:url(#linear-gradient-2);}.cls-4{font-size:156.25px;letter-spacing:0.03em;}.cls-4,.cls-6{font-family:HelveticaNeue, Helvetica Neue;}.cls-5{fill:url(#radial-gradient);}.cls-6{font-size:93.8px;letter-spacing:0.35em;}.cls-7{fill:url(#radial-gradient-15);}.cls-8{fill:url(#linear-gradient-3);}.cls-9{fill:url(#linear-gradient-4);}.cls-10{fill:url(#linear-gradient-5);}.cls-11{fill:url(#linear-gradient-6);}.cls-12{fill:url(#linear-gradient-7);}</style><linearGradient id="linear-gradient" x1="-288.82" y1="-104.58" x2="11.32" y2="-104.58" gradientTransform="matrix(0.79, 0.16, -0.27, 0.99, 985.03, 590.11)" gradientUnits="userSpaceOnUse"><stop offset="0" stop-color="#f7eda7"/><stop offset="0.01" stop-color="#f7eca6"/><stop offset="0.02" stop-color="#f6eca5"/><stop offset="0.02" stop-color="#f6eba4"/><stop offset="0.03" stop-color="#f5eaa3"/><stop offset="0.04" stop-color="#f5e9a2"/><stop offset="0.05" stop-color="#f5e9a1"/><stop offset="0.05" stop-color="#f4e8a0"/><stop offset="0.06" stop-color="#f4e79f"/><stop offset="0.07" stop-color="#f4e79e"/><stop offset="0.08" stop-color="#f3e69d"/><stop offset="0.09" stop-color="#f3e59c"/><stop offset="0.09" stop-color="#f3e59b"/><stop offset="0.1" stop-color="#f2e499"/><stop offset="0.11" stop-color="#f2e398"/><stop offset="0.12" stop-color="#f1e397"/><stop offset="0.12" stop-color="#f1e296"/><stop offset="0.13" stop-color="#f1e296"/><stop offset="0.13" stop-color="#f1e195"/><stop offset="0.13" stop-color="#f0e195"/><stop offset="0.14" stop-color="#f0e194"/><stop offset="0.14" stop-color="#f0e094"/><stop offset="0.14" stop-color="#f0e093"/><stop offset="0.15" stop-color="#f0e092"/><stop offset="0.15" stop-color="#efdf92"/><stop offset="0.16" stop-color="#efdf91"/><stop offset="0.16" stop-color="#efde91"/><stop offset="0.16" stop-color="#efde90"/><stop offset="0.17" stop-color="#efde90"/><stop offset="0.17" stop-color="#eedd8f"/><stop offset="0.18" stop-color="#eedd8f"/><stop offset="0.18" stop-color="#eedd8e"/><stop offset="0.18" stop-color="#eedc8e"/><stop offset="0.19" stop-color="#eedc8d"/><stop offset="0.19" stop-color="#eddc8c"/><stop offset="0.2" stop-color="#eddb8c"/><stop offset="0.2" stop-color="#eddb8b"/><stop offset="0.2" stop-color="#eddb8b"/><stop offset="0.21" stop-color="#edda8a"/><stop offset="0.21" stop-color="#edda8a"/><stop offset="0.21" stop-color="#ecda89"/><stop offset="0.22" stop-color="#ecd989"/><stop offset="0.22" stop-color="#ecd988"/><stop offset="0.23" stop-color="#ecd988"/><stop offset="0.23" stop-color="#ecd887"/><stop offset="0.23" stop-color="#ebd887"/><stop offset="0.24" stop-color="#ebd786"/><stop offset="0.24" stop-color="#ebd785"/><stop offset="0.25" stop-color="#ebd785"/><stop offset="0.25" stop-color="#ebd684"/><stop offset="0.25" stop-color="#ead684"/><stop offset="0.26" stop-color="#ead683"/><stop offset="0.26" stop-color="#ead583"/><stop offset="0.27" stop-color="#ead582"/><stop offset="0.27" stop-color="#ead582"/><stop offset="0.27" stop-color="#e9d481"/><stop offset="0.28" stop-color="#e9d481"/><stop offset="0.28" stop-color="#e9d480"/><stop offset="0.29" stop-color="#e9d380"/><stop offset="0.29" stop-color="#e9d37f"/><stop offset="0.29" stop-color="#e8d37e"/><stop offset="0.3" stop-color="#e8d27e"/><stop offset="0.3" stop-color="#e8d27d"/><stop offset="0.3" stop-color="#e8d17d"/><stop offset="0.31" stop-color="#e8d17c"/><stop offset="0.31" stop-color="#e7d17c"/><stop offset="0.32" stop-color="#e7d07b"/><stop offset="0.32" stop-color="#e7d07b"/><stop offset="0.32" stop-color="#e7d07a"/><stop offset="0.33" stop-color="#e7cf7a"/><stop offset="0.33" stop-color="#e6cf79"/><stop offset="0.34" stop-color="#e6cf79"/><stop offset="0.34" stop-color="#e6ce78"/><stop offset="0.34" stop-color="#e6ce78"/><stop offset="0.35" stop-color="#e6ce77"/><stop offset="0.35" stop-color="#e5cd77"/><stop offset="0.36" stop-color="#e5cd76"/><stop offset="0.36" stop-color="#e5cd75"/><stop offset="0.36" stop-color="#e5cc75"/><stop offset="0.37" stop-color="#e5cc74"/><stop offset="0.37" stop-color="#e4cb74"/><stop offset="0.38" stop-color="#e4cb73"/><stop offset="0.38" stop-color="#e4cb73"/><stop offset="0.38" stop-color="#e4ca72"/><stop offset="0.39" stop-color="#e4ca72"/><stop offset="0.39" stop-color="#e3ca71"/><stop offset="0.39" stop-color="#e3c971"/><stop offset="0.4" stop-color="#e3c970"/><stop offset="0.4" stop-color="#e3c970"/><stop offset="0.41" stop-color="#e3c86f"/><stop offset="0.41" stop-color="#e2c86f"/><stop offset="0.41" stop-color="#e2c86e"/><stop offset="0.42" stop-color="#e2c76e"/><stop offset="0.42" stop-color="#e2c76d"/><stop offset="0.43" stop-color="#e1c76d"/><stop offset="0.43" stop-color="#e1c66c"/><stop offset="0.43" stop-color="#e1c66c"/><stop offset="0.44" stop-color="#e1c56b"/><stop offset="0.44" stop-color="#e1c56a"/><stop offset="0.45" stop-color="#e0c56a"/><stop offset="0.45" stop-color="#e0c469"/><stop offset="0.45" stop-color="#e0c469"/><stop offset="0.46" stop-color="#e0c468"/><stop offset="0.46" stop-color="#e0c368"/><stop offset="0.46" stop-color="#dfc367"/><stop offset="0.47" stop-color="#dfc367"/><stop offset="0.47" stop-color="#dfc266"/><stop offset="0.48" stop-color="#dfc266"/><stop offset="0.48" stop-color="#dfc265"/><stop offset="0.48" stop-color="#dec165"/><stop offset="0.49" stop-color="#dec164"/><stop offset="0.49" stop-color="#dec164"/><stop offset="0.5" stop-color="#dec063"/><stop offset="0.5" stop-color="#dec063"/><stop offset="0.5" stop-color="#ddc062"/><stop offset="0.51" stop-color="#ddbf62"/><stop offset="0.51" stop-color="#ddbf61"/><stop offset="0.52" stop-color="#ddbf61"/><stop offset="0.52" stop-color="#ddbe60"/><stop offset="0.52" stop-color="#dcbe60"/><stop offset="0.53" stop-color="#dcbd5f"/><stop offset="0.53" stop-color="#dcbd5f"/><stop offset="0.54" stop-color="#dcbd5e"/><stop offset="0.54" stop-color="#dcbc5e"/><stop offset="0.54" stop-color="#dbbc5d"/><stop offset="0.55" stop-color="#dbbc5d"/><stop offset="0.55" stop-color="#dbbb5c"/><stop offset="0.55" stop-color="#dbbb5c"/><stop offset="0.56" stop-color="#dbbb5b"/><stop offset="0.56" stop-color="#daba5b"/><stop offset="0.57" stop-color="#daba5a"/><stop offset="0.57" stop-color="#daba5a"/><stop offset="0.57" stop-color="#dab959"/><stop offset="0.58" stop-color="#dab959"/><stop offset="0.58" stop-color="#d9b958"/><stop offset="0.59" stop-color="#d9b858"/><stop offset="0.59" stop-color="#d9b857"/><stop offset="0.59" stop-color="#d9b857"/><stop offset="0.6" stop-color="#d9b756"/><stop offset="0.6" stop-color="#d8b756"/><stop offset="0.61" stop-color="#d8b755"/><stop offset="0.61" stop-color="#d8b655"/><stop offset="0.61" stop-color="#d8b654"/><stop offset="0.62" stop-color="#d8b654"/><stop offset="0.62" stop-color="#d7b553"/><stop offset="0.63" stop-color="#d7b553"/><stop offset="0.63" stop-color="#d7b552"/><stop offset="0.63" stop-color="#d7b452"/><stop offset="0.64" stop-color="#d7b451"/><stop offset="0.64" stop-color="#d6b351"/><stop offset="0.64" stop-color="#d6b351"/><stop offset="0.65" stop-color="#d6b350"/><stop offset="0.65" stop-color="#d6b250"/><stop offset="0.66" stop-color="#d6b24f"/><stop offset="0.66" stop-color="#d5b24f"/><stop offset="0.66" stop-color="#d5b14e"/><stop offset="0.67" stop-color="#d5b14e"/><stop offset="0.67" stop-color="#d5b14d"/><stop offset="0.68" stop-color="#d4b04d"/><stop offset="0.68" stop-color="#d4b04c"/><stop offset="0.68" stop-color="#d4b04c"/><stop offset="0.69" stop-color="#d4af4b"/><stop offset="0.69" stop-color="#d4af4b"/><stop offset="0.7" stop-color="#d3af4a"/><stop offset="0.7" stop-color="#d3ae4a"/><stop offset="0.7" stop-color="#d3ae49"/><stop offset="0.71" stop-color="#d3ae49"/><stop offset="0.71" stop-color="#d3ad48"/><stop offset="0.71" stop-color="#d2ad48"/><stop offset="0.72" stop-color="#d2ad48"/><stop offset="0.72" stop-color="#d2ac47"/><stop offset="0.73" stop-color="#d2ac47"/><stop offset="0.73" stop-color="#d2ac46"/><stop offset="0.73" stop-color="#d1ab46"/><stop offset="0.74" stop-color="#d1ab45"/><stop offset="0.74" stop-color="#d1ab45"/><stop offset="0.75" stop-color="#d1aa44"/><stop offset="0.75" stop-color="#d1aa44"/><stop offset="0.75" stop-color="#d0aa43"/><stop offset="0.76" stop-color="#d0a943"/><stop offset="0.76" stop-color="#d0a942"/><stop offset="0.77" stop-color="#d0a942"/><stop offset="0.77" stop-color="#d0a842"/><stop offset="0.77" stop-color="#cfa841"/><stop offset="0.78" stop-color="#cfa841"/><stop offset="0.78" stop-color="#cfa740"/><stop offset="0.79" stop-color="#cfa740"/><stop offset="0.79" stop-color="#cfa73f"/><stop offset="0.79" stop-color="#cea63f"/><stop offset="0.8" stop-color="#cea63e"/><stop offset="0.8" stop-color="#cea63e"/><stop offset="0.8" stop-color="#cea53e"/><stop offset="0.81" stop-color="#cea53d"/><stop offset="0.81" stop-color="#cda53d"/><stop offset="0.82" stop-color="#cda43c"/><stop offset="0.82" stop-color="#cda43c"/><stop offset="0.82" stop-color="#cda43b"/><stop offset="0.83" stop-color="#cda33b"/><stop offset="0.83" stop-color="#cca33a"/><stop offset="0.84" stop-color="#cca33a"/><stop offset="0.84" stop-color="#cca23a"/><stop offset="0.84" stop-color="#cca239"/><stop offset="0.85" stop-color="#cca239"/><stop offset="0.85" stop-color="#cba138"/><stop offset="0.86" stop-color="#cba138"/><stop offset="0.86" stop-color="#cba137"/><stop offset="0.86" stop-color="#cba037"/><stop offset="0.87" stop-color="#cba037"/><stop offset="0.87" stop-color="#caa036"/><stop offset="0.88" stop-color="#caa036"/><stop offset="0.88" stop-color="#ca9f35"/><stop offset="0.88" stop-color="#ca9f35"/><stop offset="0.89" stop-color="#ca9f34"/><stop offset="0.89" stop-color="#c99e34"/><stop offset="0.89" stop-color="#c99e34"/><stop offset="0.9" stop-color="#c99e33"/><stop offset="0.9" stop-color="#c99d33"/><stop offset="0.91" stop-color="#c99d32"/><stop offset="0.91" stop-color="#c89d32"/><stop offset="0.91" stop-color="#c89c31"/><stop offset="0.92" stop-color="#c89c31"/><stop offset="0.92" stop-color="#c89c31"/><stop offset="0.93" stop-color="#c89b30"/><stop offset="0.93" stop-color="#c79b30"/><stop offset="0.93" stop-color="#c79b2f"/><stop offset="0.94" stop-color="#c79a2f"/><stop offset="0.94" stop-color="#c79a2e"/><stop offset="0.95" stop-color="#c79a2e"/><stop offset="0.95" stop-color="#c6992e"/><stop offset="0.95" stop-color="#c6992d"/><stop offset="0.96" stop-color="#c6992d"/><stop offset="0.96" stop-color="#c6982c"/><stop offset="0.96" stop-color="#c6982c"/><stop offset="0.97" stop-color="#c5982c"/><stop offset="0.97" stop-color="#c5982b"/><stop offset="0.98" stop-color="#c5972b"/><stop offset="0.98" stop-color="#c5972a"/><stop offset="0.98" stop-color="#c5972a"/><stop offset="0.99" stop-color="#c4962a"/><stop offset="0.99" stop-color="#c49629"/><stop offset="1" stop-color="#c49629"/><stop offset="1" stop-color="#c49528"/></linearGradient><linearGradient id="linear-gradient-2" x1="-425.98" y1="200.04" x2="895.78" y2="200.04" gradientTransform="translate(643.5 471.71) rotate(16.48)" xlink:href="#linear-gradient"/><radialGradient id="radial-gradient" cx="780.93" cy="1183.32" r="518.61" gradientTransform="matrix(1, 0, 0, 1, 0, 0)" xlink:href="#linear-gradient"/><radialGradient id="radial-gradient-15" cx="768.88" cy="1040.32" r="139.52" gradientTransform="matrix(1, 0, 0, 1, 0, 0)" xlink:href="#linear-gradient"/><linearGradient id="linear-gradient-3" x1="101.39" y1="972.45" x2="1434.19" y2="972.45" gradientTransform="matrix(1, 0, 0, 1, 0, 0)" xlink:href="#linear-gradient"/><linearGradient id="linear-gradient-4" x1="283.5" y1="1372.37" x2="1262.36" y2="1372.37" gradientTransform="matrix(1, 0, 0, 1, 0, 0)" xlink:href="#linear-gradient"/><linearGradient id="linear-gradient-5" x1="101.39" y1="769.28" x2="246.06" y2="769.28" gradientTransform="matrix(1, 0, 0, 1, 0, 0)" xlink:href="#linear-gradient"/><linearGradient id="linear-gradient-6" x1="249.35" y1="292.96" x2="1000.74" y2="292.96" gradientTransform="matrix(1, 0, 0, 1, 0, 0)" xlink:href="#linear-gradient"/><linearGradient id="linear-gradient-7" x1="1019.59" y1="512.93" x2="1434.1" y2="512.93" gradientTransform="matrix(1, 0, 0, 1, 0, 0)" xlink:href="#linear-gradient"/></defs><rect class="cls-1" x="-0.56" y="0.91" width="1576.22" height="1588.84"/><path class="cls-2" d="M1138.05,63.35C1087,105.46,1034.2,165.26,982.81,243c-65.94,99.76-119.66,210-172.74,319.19-16,32.92-32.53,65.25-50.81,96.87-16.81,29.1-34.42,57.63-50,87.62-13.18,25.32-25.53,55.68-23,83.06C692.47,896,777.07,895,797,819.9c4.19-15.83,5.17-31.81,6.53-47.65C814,651.14,854.33,534.58,903.29,420c14.39-33.69,29.87-66.61,46.19-98.1C1007.07,210.84,1074.77,118.33,1138.05,63.35Z"/><path class="cls-3" d="M224.46,386.54s0,.59,0,1.75c0,.58,0,1.3,0,2.17s.12,1.86.19,3a83.29,83.29,0,0,0,4,19.51c26.69,81.45,119.17,137.84,192.5,157.14,67.56,17.78,143.66,11.25,209.45-21.25,7.52-3.72,14.86-7.87,22.2-12,21.55-12.22,19.95-15.14,49.88-23,25.73-6.73,60.6-.86,68.33,30.21,5.4,21.69-5.76,45.81-16.34,64.48-13.53,23.86-30.71,44.88-47.61,66-28.19,35.21-59.09,72.23-67.51,119-8.13,45.16,8.6,93,41.52,118.84s80.48,28.31,118.06,6.23c17-10,32.16-25,41.05-43.71,15.27-32.23,10.28-69.69,8-104.88-2.92-44.64-.69-90.63,12.6-134,9.81-32,28.92-65.19,58.62-74.1,23.4-7,47.7,3.08,66.18,18.52,42.31,35.34,55.74,81.53,84.71,127.23C1106.7,765,1160,808.75,1221,831.36c66.43,24.63,142.71,24.58,211.46-1.74a279,279,0,0,0,40.28-19.31l5.74-3.32-5.86,3c-1.94,1-4.33,2.26-7.19,3.69-61.79,30.78-133.55,36.51-197.2,21.13a300.73,300.73,0,0,1-159.38-98.91,297.52,297.52,0,0,1-25.24-35c-23.94-38.81-40.33-83.77-69.56-117.85s-77.82-55.11-117.58-32c-28.73,16.74-45,51.61-54.5,85.37a393.55,393.55,0,0,0-13.6,135.62c2.15,29,7.28,59.27-3.3,86.77-15.81,41.09-63.84,60.36-101.94,49.66-29.15-8.19-54.33-32-62.53-63.58-9.86-38.08,5.32-80.55,27.15-114.28s50.2-62.05,72.36-95.54c12.52-18.92,23.15-39.94,26.64-62.54s-1.08-47-15.56-62.38c-17.61-18.68-46.06-20.49-70.79-13.17s-47.21,22.33-70.58,34.34c-66.26,34-141.64,43.8-210.69,27.32-71.15-17-160.39-69.59-189.35-146.29a83.46,83.46,0,0,1-4.78-19c-.12-1.13-.28-2.11-.32-3s-.09-1.58-.12-2.16C224.5,387.13,224.46,386.54,224.46,386.54Z"/><text class="cls-4" transform="translate(37.65 1239.18)">HAIR TRANSPLANT</text><path class="cls-5" d="M64.68,1127.62v48h58.75v-48h14.84v111.56H123.43v-51.09H64.68v51.09H49.83V1127.62Z"/><path class="cls-5" d="M214.05,1127.62l43.6,111.56H241.24l-12.19-33.59H181.86l-12.5,33.59H154.21l43.44-111.56Zm10.31,65.47-18.59-52h-.31l-18.91,52Z"/><path class="cls-5" d="M288.74,1127.62v111.56H273.9V1127.62Z"/><path class="cls-5" d="M370.93,1127.62q15.93,0,24.92,7.81t9,21.41a33.87,33.87,0,0,1-4.6,17.81q-4.62,7.66-14.77,10.47v.31a19.91,19.91,0,0,1,7.89,3.13,17.17,17.17,0,0,1,4.84,5.23,23.58,23.58,0,0,1,2.66,6.8,72.21,72.21,0,0,1,1.33,7.81c.21,2.71.36,5.47.47,8.28a70.33,70.33,0,0,0,.78,8.29,49,49,0,0,0,1.8,7.73,19,19,0,0,0,3.51,6.48H392.18a9.24,9.24,0,0,1-2.11-4.68,46.71,46.71,0,0,1-.7-6.64c-.11-2.45-.21-5.08-.32-7.89a54.07,54.07,0,0,0-.93-8.29q-.63-4-1.57-7.73a18,18,0,0,0-3-6.41,14.56,14.56,0,0,0-5.31-4.37,19.61,19.61,0,0,0-8.75-1.64H333.27v47.65H318.43V1127.62Zm3.12,50.63a21.52,21.52,0,0,0,8.21-3,16.66,16.66,0,0,0,5.62-6.09,20.46,20.46,0,0,0,2.11-9.93q0-8.43-4.69-13.75t-15.15-5.31H333.27V1179h30.94A59.81,59.81,0,0,0,374.05,1178.25Z"/><path class="cls-5" d="M466.4,1140.12v-12.5h89.22v12.5H518.43v99.06H503.59v-99.06Z"/><path class="cls-5" d="M625.15,1127.62q15.93,0,24.92,7.81t9,21.41a33.87,33.87,0,0,1-4.61,17.81q-4.62,7.66-14.77,10.47v.31a19.91,19.91,0,0,1,7.89,3.13,17.21,17.21,0,0,1,4.85,5.23,23.85,23.85,0,0,1,2.65,6.8,72.21,72.21,0,0,1,1.33,7.81c.21,2.71.36,5.47.47,8.28a70.33,70.33,0,0,0,.78,8.29,50.14,50.14,0,0,0,1.8,7.73,19,19,0,0,0,3.51,6.48H646.4a9.24,9.24,0,0,1-2.11-4.68,46.71,46.71,0,0,1-.7-6.64c-.11-2.45-.21-5.08-.32-7.89a54.07,54.07,0,0,0-.93-8.29q-.63-4-1.57-7.73a18.17,18.17,0,0,0-3-6.41,14.68,14.68,0,0,0-5.32-4.37,19.58,19.58,0,0,0-8.75-1.64H587.49v47.65H572.65V1127.62Zm3.12,50.63a21.52,21.52,0,0,0,8.21-3,16.66,16.66,0,0,0,5.62-6.09,20.46,20.46,0,0,0,2.11-9.93q0-8.43-4.69-13.75t-15.15-5.31H587.49V1179h30.94A59.81,59.81,0,0,0,628.27,1178.25Z"/><path class="cls-5" d="M731.09,1127.62l43.59,111.56H758.27l-12.18-33.59H698.9l-12.5,33.59H671.24l43.44-111.56Zm10.31,65.47-18.59-52h-.32l-18.9,52Z"/><path class="cls-5" d="M805.93,1127.62l58.75,90.47H865v-90.47h14.07v111.56H862.81l-58.29-89.53h-.31v89.53H790.15V1127.62Z"/><path class="cls-5" d="M963.67,1142.86q-7.42-5.4-19-5.4a45.78,45.78,0,0,0-9.22.94,24.49,24.49,0,0,0-8,3.13,16.4,16.4,0,0,0-5.63,5.86,18.07,18.07,0,0,0-2.11,9.14,11.66,11.66,0,0,0,3.05,8.36,22.62,22.62,0,0,0,8.12,5.23,67.5,67.5,0,0,0,11.49,3.36q6.4,1.33,13,2.89t13,3.67a43.15,43.15,0,0,1,11.49,5.71,27.07,27.07,0,0,1,8.12,9.06q3,5.48,3.05,13.75a27.94,27.94,0,0,1-4,15.23,32.83,32.83,0,0,1-10.23,10.32,44.8,44.8,0,0,1-14,5.78,68.33,68.33,0,0,1-15.4,1.79,65.46,65.46,0,0,1-17.73-2.34,43.75,43.75,0,0,1-14.69-7.11,33.64,33.64,0,0,1-10-12.19,39.15,39.15,0,0,1-3.67-17.57h14.06a25.15,25.15,0,0,0,2.74,12.11,24.77,24.77,0,0,0,7.19,8.35,30.17,30.17,0,0,0,10.39,4.85,47.69,47.69,0,0,0,12.18,1.56,54.9,54.9,0,0,0,10.08-.94,29.54,29.54,0,0,0,9.14-3.2,17.15,17.15,0,0,0,9.06-16.17,14,14,0,0,0-3-9.38,22.43,22.43,0,0,0-8.13-5.86,59.54,59.54,0,0,0-11.48-3.67l-13.05-2.89q-6.64-1.49-13-3.44a47.22,47.22,0,0,1-11.48-5.15,24.84,24.84,0,0,1-8.13-8.28q-3-5.08-3-12.74a29.61,29.61,0,0,1,3.43-14.61,29.94,29.94,0,0,1,9.15-10.15,40.83,40.83,0,0,1,13-5.94,57.25,57.25,0,0,1,14.92-2,59.33,59.33,0,0,1,15.93,2,36.15,36.15,0,0,1,12.9,6.4,31.06,31.06,0,0,1,8.75,11,39.45,39.45,0,0,1,3.51,15.86H972.34Q971.08,1148.25,963.67,1142.86Z"/><path class="cls-5" d="M1062.65,1127.62q16.88,0,25.55,8.67t8.67,24.3q0,15.63-8.67,24.38t-25.55,8.59h-34.06v45.62h-14.85V1127.62Zm-5,53.44q12.66.15,18.52-5.16t5.86-15.31q0-10-5.86-15.23t-18.52-5.24h-29.06v40.94Z"/><path class="cls-5" d="M1134.53,1127.62v99.06h59.06v12.5h-73.91V1127.62Z"/><path class="cls-5" d="M1258,1127.62l43.59,111.56h-16.41L1273,1205.59h-47.19l-12.5,33.59h-15.16l43.44-111.56Zm10.31,65.47-18.59-52h-.32l-18.9,52Z"/><path class="cls-5" d="M1332.81,1127.62l58.75,90.47h.31v-90.47h14.07v111.56h-16.25l-58.29-89.53h-.31v89.53H1317V1127.62Z"/><path class="cls-5" d="M1422.81,1140.12v-12.5H1512v12.5h-37.19v99.06H1460v-99.06Z"/><text class="cls-6" transform="translate(566.93 1073.8)">MIAMI</text><path class="cls-7" d="M586.63,1006.83l21.11,56.28,21.19-56.28h12.2v67h-8.44v-55.71h-.19l-20.92,55.71H604l-20.91-55.71h-.19v55.71h-8.44v-67Z"/><path class="cls-7" d="M698.06,1006.83v67h-8.91v-67Z"/><path class="cls-7" d="M773.94,1006.83l26.17,67h-9.85L783,1053.64H754.62l-7.5,20.16H738l26.08-67Zm6.19,39.3L769,1014.9h-.18l-11.35,31.23Z"/><path class="cls-7" d="M851.89,1006.83,873,1063.11l21.19-56.28h12.2v67H898v-55.71h-.19l-20.92,55.71h-7.6l-20.91-55.71h-.19v55.71H839.7v-67Z"/><path class="cls-7" d="M963.32,1006.83v67h-8.91v-67Z"/><path class="cls-8" d="M1327.66,1088.23h48.49a662.72,662.72,0,0,0,56.79-231.56l-44.54,9A617.49,617.49,0,0,1,1327.66,1088.23Z"/><path class="cls-9" d="M768.9,1437.34A619.24,619.24,0,0,1,348.53,1273.6h-65C405,1402.08,577,1482.25,767.79,1482.25c196.22,0,372.62-84.81,494.57-219.77h-61.31C1089.21,1370.72,936.83,1437.34,768.9,1437.34Z"/><path class="cls-10" d="M246.06,479.72,218,439.21a667.17,667.17,0,0,0-53.44,660.13h51.15a622.28,622.28,0,0,1,30.37-619.62Z"/><path class="cls-11" d="M1000.74,191.32a664.69,664.69,0,0,0-233-41.87c-209.42,0-396.28,96.61-518.44,247.68l27.26,39.33C390.26,289.21,568.5,194.36,768.9,194.36A620.58,620.58,0,0,1,971,228Z"/><path class="cls-12" d="M1048.58,211.34l-29,35.67c218,96.21,370.25,314,370.79,567.5l43.72-8.84C1430.16,542.29,1273.42,316,1048.58,211.34Z"/></svg>